<svg xmlns="http://www.w3.org/2000/svg" fill="none" viewBox="0 0 48 48" id="Stadia-Controller--Streamline-Outlined-Material" style="background-color: #000000">
  <desc>
    Stadia Controller Streamline Icon: https://streamlinehq.com
  </desc>
  <path fill="#ffffff" d="M9.44961 40c-2 0 -3.70833 -0.7167 -5.125 -2.15 -1.41667 -1.4333 -2.15833 -3.1667 -2.225 -5.2 0 -0.3 0.01667 -0.6 0.05 -0.9 0.03333 -0.3 0.08333 -0.6 0.15 -0.9l4.2 -16.8c0.46667 -1.8 1.41667 -3.2583 2.85 -4.375C10.7829 8.55833 12.4163 8 14.2496 8h19.5c1.8333 0 3.4667 0.55833 4.9 1.675 1.4333 1.1167 2.3833 2.575 2.85 4.375l4.2 16.8c0.0667 0.3 0.125 0.6083 0.175 0.925 0.05 0.3167 0.075 0.625 0.075 0.925 0 2.0333 -0.725 3.7583 -2.175 5.175 -1.45 1.4167 -3.1917 2.125 -5.225 2.125 -1.4 0 -2.7 -0.3667 -3.9 -1.1 -1.2 -0.7333 -2.1 -1.7333 -2.7 -3l-1.4 -2.9c-0.1667 -0.3333 -0.4167 -0.5833 -0.75 -0.75 -0.3333 -0.1667 -0.6833 -0.25 -1.05 -0.25h-9.5c-0.3667 0 -0.7167 0.0833 -1.05 0.25 -0.3333 0.1667 -0.5833 0.4167 -0.75 0.75l-1.4 2.9c-0.6 1.2667 -1.5 2.2667 -2.7 3 -1.2 0.7333 -2.5 1.1 -3.89999 1.1Zm0.133 -3c0.81129 0 1.56149 -0.2162 2.25049 -0.6485 0.6887 -0.4327 1.2108 -1.0165 1.5665 -1.7515l1.4 -2.85c0.4333 -0.8667 1.0417 -1.5417 1.825 -2.025 0.7833 -0.4833 1.6583 -0.725 2.625 -0.725h9.5c0.9667 0 1.8417 0.25 2.625 0.75 0.7833 0.5 1.4083 1.1667 1.875 2l1.4 2.85c0.3557 0.735 0.8778 1.3188 1.5665 1.7515 0.689 0.4323 1.4378 0.6485 2.2465 0.6485 1.1913 0 2.2203 -0.4083 3.087 -1.225 0.8667 -0.8167 1.3167 -1.825 1.35 -3.025 0 -0.1333 -0.05 -0.5333 -0.15 -1.2l-4.2 -16.75c-0.2667 -1.1 -0.84 -2.0083 -1.72 -2.725 -0.88 -0.7167 -1.9067 -1.075 -3.08 -1.075h-19.5c-1.1567 0 -2.1792 0.35 -3.0675 1.05 -0.8883 0.7 -1.46582 1.6167 -1.73249 2.75l-4.2 16.75c-0.03333 0.1333 -0.08333 0.5167 -0.15 1.15 0 1.216 0.43767 2.2367 1.313 3.062 0.87533 0.8253 1.932 1.238 3.17 1.238ZM27.0086 21.5c0.4273 0 0.7827 -0.1447 1.066 -0.434 0.2833 -0.289 0.425 -0.6473 0.425 -1.075 0 -0.4273 -0.1447 -0.7827 -0.434 -1.066 -0.289 -0.2833 -0.6473 -0.425 -1.075 -0.425 -0.4273 0 -0.7827 0.1447 -1.066 0.434 -0.2833 0.289 -0.425 0.6473 -0.425 1.075 0 0.4273 0.1447 0.7827 0.434 1.066 0.289 0.2833 0.6473 0.425 1.075 0.425Zm4 -4c0.4273 0 0.7827 -0.1447 1.066 -0.434 0.2833 -0.289 0.425 -0.6473 0.425 -1.075 0 -0.4273 -0.1447 -0.7827 -0.434 -1.066 -0.289 -0.2833 -0.6473 -0.425 -1.075 -0.425 -0.4273 0 -0.7827 0.1447 -1.066 0.434 -0.2833 0.289 -0.425 0.6473 -0.425 1.075 0 0.4273 0.1447 0.7827 0.434 1.066 0.289 0.2833 0.6473 0.425 1.075 0.425Zm0 8c0.4273 0 0.7827 -0.1447 1.066 -0.434 0.2833 -0.289 0.425 -0.6473 0.425 -1.075 0 -0.4273 -0.1447 -0.7827 -0.434 -1.066 -0.289 -0.2833 -0.6473 -0.425 -1.075 -0.425 -0.4273 0 -0.7827 0.1447 -1.066 0.434 -0.2833 0.289 -0.425 0.6473 -0.425 1.075 0 0.4273 0.1447 0.7827 0.434 1.066 0.289 0.2833 0.6473 0.425 1.075 0.425Zm4 -4c0.4273 0 0.7827 -0.1447 1.066 -0.434 0.2833 -0.289 0.425 -0.6473 0.425 -1.075 0 -0.4273 -0.1447 -0.7827 -0.434 -1.066 -0.289 -0.2833 -0.6473 -0.425 -1.075 -0.425 -0.4273 0 -0.7827 0.1447 -1.066 0.434 -0.2833 0.289 -0.425 0.6473 -0.425 1.075 0 0.4273 0.1447 0.7827 0.434 1.066 0.289 0.2833 0.6473 0.425 1.075 0.425Zm-18.003 3.25c0.3627 0 0.6607 -0.118 0.894 -0.354 0.2333 -0.2363 0.35 -0.535 0.35 -0.896v-2.25h2.25c0.361 0 0.6597 -0.1187 0.896 -0.356 0.236 -0.237 0.354 -0.537 0.354 -0.9 0 -0.3627 -0.118 -0.6607 -0.354 -0.894 -0.2363 -0.2333 -0.535 -0.35 -0.896 -0.35h-2.25V16.5c0 -0.361 -0.1187 -0.6597 -0.356 -0.896 -0.237 -0.236 -0.537 -0.354 -0.9 -0.354 -0.3627 0 -0.6607 0.118 -0.894 0.354 -0.2333 0.2363 -0.35 0.535 -0.35 0.896v2.25h-2.25c-0.361 0 -0.6597 0.1187 -0.896 0.356 -0.236 0.237 -0.354 0.537 -0.354 0.9 0 0.3627 0.118 0.6607 0.354 0.894 0.2363 0.2333 0.535 0.35 0.896 0.35h2.25v2.25c0 0.361 0.1187 0.6597 0.356 0.896 0.237 0.236 0.537 0.354 0.9 0.354Z" stroke-width="1"></path>
</svg>