<svg xmlns="http://www.w3.org/2000/svg" fill="none" viewBox="0 0 48 48" id="Palette--Streamline-Outlined-Material" style="background-color: #000000">
  <desc>
    Palette Streamline Icon: https://streamlinehq.com
  </desc>
  <path fill="#ffffff" d="M24 44c-2.7333 0 -5.3167 -0.525 -7.75 -1.575 -2.4333 -1.05 -4.5583 -2.4833 -6.375 -4.3 -1.81667 -1.8167 -3.25 -3.9417 -4.3 -6.375C4.525 29.3167 4 26.7333 4 24c0 -2.8333 0.53333 -5.4667 1.6 -7.9 1.06667 -2.4333 2.525 -4.55 4.375 -6.35 1.85 -1.8 4.0167 -3.20833 6.5 -4.225C18.9583 4.50833 21.6167 4 24.45 4c2.6333 0 5.1333 0.44167 7.5 1.325S36.3917 7.43333 38.175 9c1.7833 1.5667 3.2 3.425 4.25 5.575C43.475 16.725 44 19.0833 44 21.65c0 3.6 -1.05 6.4417 -3.15 8.525 -2.1 2.0833 -4.8833 3.125 -8.35 3.125h-3.75c-0.6 0 -1.1167 0.2333 -1.55 0.7 -0.4333 0.4667 -0.65 0.9833 -0.65 1.55 0 0.9 0.2417 1.6667 0.725 2.3 0.4833 0.6333 0.725 1.3667 0.725 2.2 0 1.2667 -0.35 2.2417 -1.05 2.925C26.25 43.6583 25.2667 44 24 44ZM12.35 25.3c0.6667 0 1.25 -0.25 1.75 -0.75s0.75 -1.0833 0.75 -1.75c0 -0.6667 -0.25 -1.25 -0.75 -1.75s-1.0833 -0.75 -1.75 -0.75c-0.6667 0 -1.25 0.25 -1.75 0.75s-0.75 1.0833 -0.75 1.75c0 0.6667 0.25 1.25 0.75 1.75s1.0833 0.75 1.75 0.75Zm6.3 -8.5c0.6667 0 1.25 -0.25 1.75 -0.75s0.75 -1.0833 0.75 -1.75c0 -0.6667 -0.25 -1.25 -0.75 -1.75s-1.0833 -0.75 -1.75 -0.75c-0.6667 0 -1.25 0.25 -1.75 0.75s-0.75 1.0833 -0.75 1.75c0 0.6667 0.25 1.25 0.75 1.75s1.0833 0.75 1.75 0.75Zm10.7 0c0.6667 0 1.25 -0.25 1.75 -0.75s0.75 -1.0833 0.75 -1.75c0 -0.6667 -0.25 -1.25 -0.75 -1.75s-1.0833 -0.75 -1.75 -0.75c-0.6667 0 -1.25 0.25 -1.75 0.75s-0.75 1.0833 -0.75 1.75c0 0.6667 0.25 1.25 0.75 1.75s1.0833 0.75 1.75 0.75Zm6.55 8.5c0.6667 0 1.25 -0.25 1.75 -0.75s0.75 -1.0833 0.75 -1.75c0 -0.6667 -0.25 -1.25 -0.75 -1.75s-1.0833 -0.75 -1.75 -0.75c-0.6667 0 -1.25 0.25 -1.75 0.75s-0.75 1.0833 -0.75 1.75c0 0.6667 0.25 1.25 0.75 1.75s1.0833 0.75 1.75 0.75ZM24 41c0.3667 0 0.625 -0.075 0.775 -0.225 0.15 -0.15 0.225 -0.3917 0.225 -0.725 0 -0.4667 -0.2417 -0.9 -0.725 -1.3 -0.4833 -0.4 -0.725 -1.2833 -0.725 -2.65 0 -1.5333 0.5 -2.8833 1.5 -4.05 1 -1.1667 2.2667 -1.75 3.8 -1.75h3.65c2.5333 0 4.5833 -0.7417 6.15 -2.225S41 24.45 41 21.65c0 -4.4 -1.6667 -7.9417 -5 -10.625C32.6667 8.34167 28.8167 7 24.45 7c-4.8667 0 -8.9917 1.64167 -12.375 4.925C8.69167 15.2083 7 19.2333 7 24c0 4.7 1.65833 8.7083 4.975 12.025C15.2917 39.3417 19.3 41 24 41Z" stroke-width="1"></path>
</svg>