<svg xmlns="http://www.w3.org/2000/svg" fill="none" viewBox="0 0 48 48" id="Skull--Streamline-Outlined-Material" style="background-color: #000000">
  <desc>
    Skull Streamline Icon: https://streamlinehq.com
  </desc>
  <path fill="#ffffff" d="M12 44v-8.5c-1.2 -0.5333 -2.29167 -1.25 -3.275 -2.15 -0.98333 -0.9 -1.825 -1.9417 -2.525 -3.125S4.95833 27.75 4.575 26.35C4.19167 24.95 4 23.5 4 22c0 -5.2667 1.86667 -9.5833 5.6 -12.95C13.3333 5.68333 18.1333 4 24 4s10.6667 1.68333 14.4 5.05C42.1333 12.4167 44 16.7333 44 22c0 1.5 -0.1917 2.95 -0.575 4.35 -0.3833 1.4 -0.925 2.6917 -1.625 3.875s-1.5417 2.225 -2.525 3.125c-0.9833 0.9 -2.075 1.6167 -3.275 2.15V44H12Zm3 -3h3.5v-5h3v5h5v-5h3v5H33v-7.35c1.2333 -0.3667 2.3417 -0.9167 3.325 -1.65 0.9833 -0.7333 1.825 -1.6083 2.525 -2.625s1.2333 -2.1503 1.6 -3.401c0.3667 -1.2507 0.55 -2.5728 0.55 -3.9665 0 -4.4663 -1.5667 -8.0842 -4.7 -10.8535C33.1667 8.38467 29.0673 7 24.002 7c-5.065 0 -9.165 1.38483 -12.3 4.1545C8.56733 13.9242 7 17.5425 7 22.0095c0 1.3937 0.18333 2.7155 0.55 3.9655 0.36667 1.25 0.9 2.3833 1.6 3.4 0.7 1.0167 1.5417 1.8917 2.525 2.625 0.9833 0.7333 2.0917 1.2833 3.325 1.65V41Zm6 -11h6l-3 -6 -3 6Zm-3.9955 -5c0.9637 0 1.7872 -0.3432 2.4705 -1.0295 0.6833 -0.6863 1.025 -1.5113 1.025 -2.475s-0.3432 -1.7872 -1.0295 -2.4705c-0.6863 -0.6833 -1.5113 -1.025 -2.475 -1.025s-1.7872 0.3432 -2.4705 1.0295c-0.6833 0.6863 -1.025 1.5113 -1.025 2.475s0.3432 1.7872 1.0295 2.4705c0.6863 0.6833 1.5113 1.025 2.475 1.025Zm14 0c0.9637 0 1.7872 -0.3432 2.4705 -1.0295 0.6833 -0.6863 1.025 -1.5113 1.025 -2.475s-0.3432 -1.7872 -1.0295 -2.4705c-0.6863 -0.6833 -1.5113 -1.025 -2.475 -1.025s-1.7872 0.3432 -2.4705 1.0295c-0.6833 0.6863 -1.025 1.5113 -1.025 2.475s0.3432 1.7872 1.0295 2.4705c0.6863 0.6833 1.5113 1.025 2.475 1.025Z" stroke-width="1"></path>
</svg>