<svg xmlns="http://www.w3.org/2000/svg" fill="none" viewBox="0 0 48 48" id="Sdk--Streamline-Outlined-Material" style="background-color: #000000">
  <desc>
    Sdk Streamline Icon: https://streamlinehq.com
  </desc>
  <path fill="#ffffff" d="M9 42c-0.825 0 -1.53117 -0.2938 -2.1185 -0.8815C6.29383 40.5312 6 39.825 6 39V12.25c0 -0.3267 0.05833 -0.6358 0.175 -0.9275 0.11667 -0.2917 0.29167 -0.5658 0.525 -0.8225l2.85 -3.7c0.21533 -0.26667 0.4605 -0.46667 0.7355 -0.6s0.5798 -0.2 0.9145 -0.2h25.65c0.3347 0 0.6395 0.06667 0.9145 0.2s0.5202 0.33333 0.7355 0.6l2.85 3.7c0.1667 0.2667 0.3167 0.5442 0.45 0.8325 0.1333 0.2887 0.2 0.5945 0.2 0.9175V39c0 0.825 -0.2937 1.5312 -0.881 2.1185C40.5313 41.7062 39.825 42 39 42H9Zm0.9 -30.75h28.25L36.3295 9H11.7l-1.8 2.25ZM9 39h30V14.25H9V39Zm20.5 -5.85 6.5 -6.5 -6.5 -6.5 -2 2 4.5 4.5 -4.5 4.5 2 2Zm-11 0.2 2 -2 -4.5 -4.5 4.5 -4.5 -2 -2 -6.5 6.5 6.5 6.5Z" stroke-width="1"></path>
</svg>